<svg width="20" height="20" fill="none" viewBox="0 0 20 20" xmlns="http://www.w3.org/2000/svg"><path stroke="currentColor" stroke-linecap="round" stroke-linejoin="round" stroke-width="1.5" d="M18.179 13.067v4.045a.71.71 0 0 1-.711.711H5.02"/><path stroke="currentColor" stroke-linecap="round" stroke-linejoin="round" stroke-width="1.5" d="m9.138 9.716 6.48-2.356a.711.711 0 0 1 .916.426l1.707 4.677a.712.712 0 0 1-.427.906L6.115 17.628"/><path stroke="currentColor" stroke-linecap="round" stroke-linejoin="round" stroke-width="1.5" d="M1.883 14 4.035 1.813a.702.702 0 0 1 .818-.578l4.907.863a.72.72 0 0 1 .578.826l-2.16 12.26a3.21 3.21 0 0 1-3.654 2.605c-1.77-.285-2.952-2.018-2.64-3.787Z"/><path fill="currentColor" d="M4.828 15.517a1.034 1.034 0 1 0 0-2.069 1.034 1.034 0 0 0 0 2.07Z"/></svg>