<svg width="20" height="20" fill="none" viewBox="0 0 20 20" xmlns="http://www.w3.org/2000/svg"><path stroke="currentColor" stroke-linecap="round" stroke-linejoin="round" stroke-width="1.5" d="m7.83 16.143.486 1.095a1.844 1.844 0 0 0 3.37 0l.488-1.095a2.02 2.02 0 0 1 2.058-1.187l1.192.127a1.843 1.843 0 0 0 1.685-2.918l-.706-.97A2.02 2.02 0 0 1 16.02 10c0-.428.135-.845.387-1.19l.706-.97a1.842 1.842 0 0 0-.655-2.728 1.84 1.84 0 0 0-1.03-.19l-1.192.126a2.03 2.03 0 0 1-1.225-.26 2.02 2.02 0 0 1-.834-.93l-.49-1.096a1.843 1.843 0 0 0-3.37 0l-.488 1.095a2.02 2.02 0 0 1-2.058 1.191l-1.195-.127A1.843 1.843 0 0 0 2.89 7.84l.706.97a2.02 2.02 0 0 1 0 2.38l-.706.97a1.842 1.842 0 0 0 1.686 2.919l1.191-.127a2.03 2.03 0 0 1 2.062 1.19Z"/><path stroke="currentColor" stroke-linecap="round" stroke-linejoin="round" stroke-width="1.5" d="M10 12.5a2.5 2.5 0 1 0 0-5 2.5 2.5 0 0 0 0 5"/></svg>