<svg width="20" height="20" fill="none" viewBox="0 0 20 20" xmlns="http://www.w3.org/2000/svg"><path stroke="currentColor" stroke-linecap="round" stroke-linejoin="round" stroke-width=".417" d="M14.192 10a1.547 1.547 0 1 1 0 3.094h-2.553V6.905h2.553a1.547 1.547 0 1 1 0 3.095m0 0h-2.553m-1.19-3.094-1.547 6.189-1.547-6.189-1.547 6.189-1.547-6.189"/><path stroke="currentColor" stroke-linecap="round" stroke-linejoin="round" stroke-width=".417" d="M16.042 2.292H3.958c-.92 0-1.666.746-1.666 1.666v12.084c0 .92.746 1.666 1.666 1.666h12.084c.92 0 1.666-.746 1.666-1.666V3.958c0-.92-.746-1.666-1.666-1.666"/></svg>